<svg width="32" height="18" viewBox="0 0 32 18" fill="none" xmlns="http://www.w3.org/2000/svg">
<path d="M14.4054 13.2375C14.1375 13.3262 13.8642 13.4336 13.5872 13.5676C12.3907 14.1461 11.0716 14.9957 10.5601 17.7715L10.5177 18H0.958023C1.4166 15.6746 1.84929 14.8 3.34171 14C4.10699 13.5898 4.91878 13.4637 5.70886 13.341C6.56309 13.2082 7.3919 13.0797 8.10909 12.6C8.63806 12.2461 8.85283 11.8141 8.95314 11.3762C8.43255 10.9285 8.22833 10.2852 8.00916 9.59492C7.82024 9 7.62021 8.36992 7.19688 7.8C7.19601 7.79844 7.19688 7.7957 7.19688 7.79375C6.92815 7.61094 6.75125 7.32422 6.75125 7V6.2C6.75125 6.02266 6.80396 5.85625 6.89541 5.71211C6.94213 5.63828 6.99898 5.57031 7.0641 5.50938C7.01639 4.80117 6.97407 4.13125 6.97407 3.8C6.97407 1.70117 8.8698 0 11.2076 0C13.5458 0 15.4411 1.70117 15.4411 3.8C15.4411 4.13125 15.3988 4.80117 15.3511 5.50938C15.5436 5.68906 15.6639 5.93203 15.6639 6.2V7C15.6639 7.32422 15.487 7.61094 15.2183 7.79375V7.8L15.1625 8.02734C14.8743 9.20742 14.539 10.5809 13.4598 11.3648C13.5587 11.807 13.7731 12.2434 14.3065 12.6C14.5806 12.7836 14.8694 12.9187 15.1679 13.0254C14.9198 13.0832 14.6651 13.1516 14.4054 13.2375Z" fill="#012940"/>
<path d="M26.9291 14.2063C27.6201 14.332 28.3334 14.4617 29.033 14.8C29.8013 15.1715 30.8324 15.675 31.2612 18H12.099C12.5277 15.675 13.5588 15.1715 14.3271 14.8C15.0267 14.4617 15.7401 14.332 16.431 14.2063C17.2699 14.0535 18.0757 13.9066 18.7834 13.4C19.4666 12.9109 19.5963 12.2742 19.644 11.675C17.9158 11.4438 17.0139 10.9469 16.6092 10.6461C16.4336 10.516 16.3561 10.3102 16.4082 10.1113L17.1248 7.37656C17.1908 7.12617 17.2237 6.87031 17.2237 6.61328V4.4C17.2237 2 18.3378 1 19.2291 1C20.1203 1 20.566 1.2 20.566 1.2L21.2313 0.901172C21.3802 0.834375 21.5388 0.780469 21.7019 0.750781C25.8124 0.0046875 26.0272 4.56641 25.9604 6.32773C25.9421 6.80039 26.037 7.26914 26.238 7.70703L27.2995 10.0215C27.4082 10.2578 27.3182 10.5289 27.0807 10.6687C26.5615 10.9738 25.4982 11.457 23.7166 11.6797C23.7647 12.2777 23.8953 12.9125 24.5767 13.4C25.2844 13.9066 26.0902 14.0535 26.9291 14.2063Z" fill="#012940"/>
</svg>
